<svg xmlns="http://www.w3.org/2000/svg"  width="22px" height="23px" viewBox="0 0 22 23"><g stroke="none" stroke-width="1" fill="none" fill-rule="evenodd" stroke-linecap="square"><g transform="translate(-1047.000000, -266.000000)" stroke="#6B7790" stroke-width="2"><g transform="translate(500.000000, 235.500000)"><g transform="translate(548.000000, 32.000000)"><path d="M0.625,19.375 L19.375,0.625"></path><path d="M0.625,0.625 L19.375,19.375"></path></g></g></g></g></svg>
<svg xmlns="http://www.w3.org/2000/svg" width="11" height="19" viewBox="0 0 11 19"><g fill="none"><g fill="#5E6573"><path d="M7.1 19L7.1 10.3 10.3 10.3 10.9 6.9 7.1 6.9 7.1 4.8C7.1 3.8 7.3 3.1 9 3.1L11 3.1 11 0.1C10.5 0.1 9.4 0 8 0 5.2 0 3.3 1.6 3.3 4.5L3.3 6.9 0 6.9 0 10.3 3.3 10.3 3.3 19 7.1 19Z"/></g></g></svg>